<svg width="560" height="380" viewBox="0 0 560 380" xmlns="http://www.w3.org/2000/svg">
  <defs>
    <marker id="arrow" markerWidth="10" markerHeight="10" refX="8" refY="3" orient="auto">
      <path d="M0,0 L8,3 L0,6 Z" fill="#222"/>
    </marker>
    <marker id="arrow-green" markerWidth="10" markerHeight="10" refX="8" refY="3" orient="auto">
      <path d="M0,0 L8,3 L0,6 Z" fill="#2ca02c"/>
    </marker>
    <marker id="arrow-blue" markerWidth="10" markerHeight="10" refX="8" refY="3" orient="auto">
      <path d="M0,0 L8,3 L0,6 Z" fill="#1f77b4"/>
    </marker>
  </defs>
  <rect width="560" height="380" fill="white"/>
  <line x1="80" y1="210" x2="480" y2="210" stroke="#222" stroke-width="2" marker-end="url(#arrow)"/>
  <line x1="280" y1="340" x2="280" y2="50" stroke="#222" stroke-width="2" marker-end="url(#arrow)"/>
  <circle cx="280" cy="210" r="120" fill="none" stroke="#333" stroke-width="2"/>
  <line x1="280" y1="210" x2="383.9" y2="150" stroke="#2ca02c" stroke-width="4" marker-end="url(#arrow-green)"/>
  <line x1="280" y1="210" x2="310.9" y2="94" stroke="#1f77b4" stroke-width="4" marker-end="url(#arrow-blue)"/>
  <path d="M325 210 A45 45 0 0 0 319 187.5" fill="none" stroke="#2ca02c" stroke-width="2"/>
  <path d="M304.1 120.2 A93 93 0 0 1 360.5 163.5" fill="none" stroke="#1f77b4" stroke-width="2"/>
  <circle cx="383.9" cy="150" r="5" fill="#2ca02c"/>
  <circle cx="310.9" cy="94" r="5" fill="#1f77b4"/>
  <text x="388" y="147" font-family="serif" font-size="17">P = (cos α, sin α)</text>
  <text x="316" y="90" font-family="serif" font-size="17">P' = (cos(α + θ), sin(α + θ))</text>
  <text x="327" y="191" font-family="serif" font-size="18">α</text>
  <text x="340" y="132" font-family="serif" font-size="18">θ</text>
  <text x="262" y="230" font-family="serif" font-size="18">O</text>
</svg>
