<svg width="900" height="500" viewBox="0 0 900 500" xmlns="http://www.w3.org/2000/svg">
  <defs>
    <marker id="arrow" markerWidth="10" markerHeight="10" refX="8" refY="3" orient="auto">
      <path d="M0,0 L8,3 L0,6 Z" fill="#222"/>
    </marker>
  </defs>
  <rect width="900" height="500" fill="white"/>
  <text x="40" y="45" font-family="serif" font-size="24" fill="#222">Context vector for "cat"</text>

  <rect x="55" y="95" width="190" height="70" fill="#eaf3ff" stroke="#1f77b4"/>
  <text x="78" y="125" font-family="serif" font-size="18" fill="#1f77b4">cat embedding x²</text>
  <text x="78" y="150" font-family="monospace" font-size="15" fill="#222">[0.55, 0.87, 0.66]</text>

  <line x1="255" y1="130" x2="340" y2="130" stroke="#222" stroke-width="2" marker-end="url(#arrow)"/>
  <text x="275" y="115" font-family="serif" font-size="15" fill="#222">× W_query</text>

  <rect x="355" y="95" width="165" height="70" fill="#eaf3ff" stroke="#1f77b4"/>
  <text x="380" y="125" font-family="serif" font-size="18" fill="#1f77b4">query₂</text>
  <text x="380" y="150" font-family="monospace" font-size="15" fill="#222">[0.646, 0.854]</text>

  <rect x="55" y="235" width="160" height="190" fill="#f0fff0" stroke="#2ca02c"/>
  <text x="82" y="265" font-family="serif" font-size="18" fill="#2ca02c">all keys</text>
  <text x="82" y="292" font-family="serif" font-size="14" fill="#555">the</text>
  <text x="82" y="318" font-family="serif" font-size="14" fill="#555">cat</text>
  <text x="82" y="344" font-family="serif" font-size="14" fill="#555">sat</text>
  <text x="82" y="370" font-family="serif" font-size="14" fill="#555">on</text>
  <text x="82" y="396" font-family="serif" font-size="14" fill="#555">the</text>
  <text x="82" y="422" font-family="serif" font-size="14" fill="#555">mat</text>

  <line x1="530" y1="130" x2="610" y2="235" stroke="#222" stroke-width="2" marker-end="url(#arrow)"/>
  <line x1="225" y1="330" x2="610" y2="285" stroke="#222" stroke-width="2" marker-end="url(#arrow)"/>

  <rect x="625" y="220" width="200" height="100" fill="#fff" stroke="#444"/>
  <text x="655" y="252" font-family="serif" font-size="18" fill="#222">dot products</text>
  <text x="655" y="280" font-family="serif" font-size="15" fill="#555">query₂ · each key</text>
  <text x="655" y="305" font-family="serif" font-size="15" fill="#555">raw attention scores</text>

  <line x1="725" y1="325" x2="725" y2="370" stroke="#222" stroke-width="2" marker-end="url(#arrow)"/>

  <rect x="625" y="380" width="200" height="70" fill="#f7eaff" stroke="#9467bd"/>
  <text x="655" y="410" font-family="serif" font-size="18" fill="#9467bd">softmax weights</text>
  <text x="655" y="435" font-family="serif" font-size="15" fill="#555">sum to 1</text>

  <rect x="315" y="350" width="170" height="90" fill="#fff4e8" stroke="#d07900"/>
  <text x="350" y="382" font-family="serif" font-size="18" fill="#d07900">all values</text>
  <text x="350" y="410" font-family="serif" font-size="15" fill="#555">content vectors</text>

  <line x1="615" y1="415" x2="500" y2="400" stroke="#222" stroke-width="2" marker-end="url(#arrow)"/>
  <line x1="495" y1="395" x2="575" y2="395" stroke="#222" stroke-width="2" marker-end="url(#arrow)"/>

  <rect x="585" y="350" width="260" height="70" fill="#fff" stroke="#444"/>
  <text x="610" y="380" font-family="serif" font-size="18" fill="#222">context vector for cat</text>
  <text x="610" y="405" font-family="monospace" font-size="15" fill="#222">[0.6882, 0.5236]</text>
</svg>
