<svg width="620" height="400" viewBox="0 0 620 400" xmlns="http://www.w3.org/2000/svg">
  <defs>
    <marker id="arrow" markerWidth="10" markerHeight="10" refX="8" refY="3" orient="auto">
      <path d="M0,0 L8,3 L0,6 Z" fill="#222"/>
    </marker>
  </defs>
  <rect width="620" height="400" fill="white"/>
  <line x1="100" y1="210" x2="520" y2="210" stroke="#222" stroke-width="2" marker-end="url(#arrow)"/>
  <line x1="310" y1="350" x2="310" y2="60" stroke="#222" stroke-width="2" marker-end="url(#arrow)"/>
  <circle cx="310" cy="210" r="125" fill="none" stroke="#333" stroke-width="2"/>
  <line x1="310" y1="210" x2="349.7" y2="91.5" stroke="#1f77b4" stroke-width="3"/>
  <line x1="310" y1="210" x2="418.3" y2="147.5" stroke="#2ca02c" stroke-width="3"/>
  <line x1="349.7" y1="91.5" x2="418.3" y2="147.5" stroke="#d62728" stroke-width="3"/>
  <path d="M359 210 A49 49 0 0 0 325.5 163.5" fill="none" stroke="#1f77b4" stroke-width="2"/>
  <path d="M385 210 A75 75 0 0 0 375 172.5" fill="none" stroke="#2ca02c" stroke-width="2"/>
  <path d="M330.6 148.3 A65 65 0 0 1 366.3 177.5" fill="none" stroke="#9467bd" stroke-width="2"/>
  <circle cx="349.7" cy="91.5" r="5" fill="#1f77b4"/>
  <circle cx="418.3" cy="147.5" r="5" fill="#2ca02c"/>
  <text x="354" y="88" font-family="serif" font-size="17">P(cos A, sin A)</text>
  <text x="423" y="148" font-family="serif" font-size="17">Q(cos B, sin B)</text>
  <text x="392" y="111" font-family="serif" font-size="17">|PQ|</text>
  <text x="329" y="164" font-family="serif" font-size="18">A</text>
  <text x="382" y="190" font-family="serif" font-size="18">B</text>
  <text x="349" y="158" font-family="serif" font-size="18">A - B</text>
  <text x="294" y="231" font-family="serif" font-size="18">O</text>
  <text x="526" y="216" font-family="serif" font-size="17">x</text>
  <text x="316" y="62" font-family="serif" font-size="17">y</text>
</svg>
