<svg width="580" height="380" viewBox="0 0 580 380" xmlns="http://www.w3.org/2000/svg">
  <defs>
    <marker id="arrow" markerWidth="10" markerHeight="10" refX="8" refY="3" orient="auto">
      <path d="M0,0 L8,3 L0,6 Z" fill="#222"/>
    </marker>
  </defs>
  <rect width="580" height="380" fill="white"/>
  <line x1="90" y1="190" x2="490" y2="190" stroke="#222" stroke-width="2" marker-end="url(#arrow)"/>
  <line x1="290" y1="330" x2="290" y2="50" stroke="#222" stroke-width="2" marker-end="url(#arrow)"/>
  <circle cx="290" cy="190" r="120" fill="none" stroke="#333" stroke-width="2"/>
  <line x1="290" y1="190" x2="394" y2="130" stroke="#1f77b4" stroke-width="3"/>
  <line x1="290" y1="190" x2="394" y2="250" stroke="#d62728" stroke-width="3"/>
  <line x1="394" y1="130" x2="394" y2="250" stroke="#777" stroke-width="2" stroke-dasharray="6 5"/>
  <circle cx="394" cy="130" r="5" fill="#1f77b4"/>
  <circle cx="394" cy="250" r="5" fill="#d62728"/>
  <path d="M336 190 A46 46 0 0 0 330 167" fill="none" stroke="#1f77b4" stroke-width="2"/>
  <path d="M336 190 A46 46 0 0 1 330 213" fill="none" stroke="#d62728" stroke-width="2"/>
  <text x="400" y="128" font-family="serif" font-size="17">(cos B, sin B)</text>
  <text x="400" y="255" font-family="serif" font-size="17">(cos B, -sin B)</text>
  <text x="343" y="172" font-family="serif" font-size="18">B</text>
  <text x="343" y="219" font-family="serif" font-size="18">-B</text>
  <text x="302" y="174" font-family="serif" font-size="16">same x</text>
  <text x="405" y="192" font-family="serif" font-size="16">opposite y</text>
  <text x="274" y="211" font-family="serif" font-size="18">O</text>
</svg>
